<svg width="20" height="20" viewBox="0 0 20 20" fill="none" xmlns="http://www.w3.org/2000/svg">
<path d="M8.57499 3.21667L1.51665 15C1.37113 15.252 1.29413 15.5378 1.29331 15.8288C1.2925 16.1198 1.3679 16.4059 1.51201 16.6588C1.65612 16.9116 1.86392 17.1223 2.11474 17.2699C2.36556 17.4175 2.65065 17.4968 2.94165 17.5H17.0583C17.3493 17.4968 17.6344 17.4175 17.8852 17.2699C18.136 17.1223 18.3439 16.9116 18.488 16.6588C18.6321 16.4059 18.7075 16.1198 18.7067 15.8288C18.7058 15.5378 18.6288 15.252 18.4833 15L11.425 3.21667C11.2764 2.97176 11.0673 2.76927 10.8176 2.62874C10.568 2.48821 10.2864 2.41438 9.99999 2.41438C9.71354 2.41438 9.43193 2.48821 9.18232 2.62874C8.93272 2.76927 8.72355 2.97176 8.57499 3.21667Z" stroke="currentColor" stroke-width="1.75" stroke-linecap="round" stroke-linejoin="round"/>
<path d="M10 7.5V10.8333" stroke="currentColor" stroke-width="1.75" stroke-linecap="round" stroke-linejoin="round"/>
<path d="M10 14.1667H10.0083" stroke="currentColor" stroke-width="1.75" stroke-linecap="round" stroke-linejoin="round"/>
</svg>
