<svg width="20" height="20" viewBox="0 0 20 20" fill="none" xmlns="http://www.w3.org/2000/svg">
<path d="M9.99999 10.8333C10.4602 10.8333 10.8333 10.4602 10.8333 10C10.8333 9.53977 10.4602 9.16667 9.99999 9.16667C9.53975 9.16667 9.16666 9.53977 9.16666 10C9.16666 10.4602 9.53975 10.8333 9.99999 10.8333Z" stroke="#5D6778" stroke-width="1.75" stroke-linecap="round" stroke-linejoin="round"/>
<path d="M15 10.8333C15.4602 10.8333 15.8333 10.4602 15.8333 10C15.8333 9.53977 15.4602 9.16667 15 9.16667C14.5398 9.16667 14.1667 9.53977 14.1667 10C14.1667 10.4602 14.5398 10.8333 15 10.8333Z" stroke="#5D6778" stroke-width="1.75" stroke-linecap="round" stroke-linejoin="round"/>
<path d="M4.99999 10.8333C5.46023 10.8333 5.83332 10.4602 5.83332 10C5.83332 9.53977 5.46023 9.16667 4.99999 9.16667C4.53975 9.16667 4.16666 9.53977 4.16666 10C4.16666 10.4602 4.53975 10.8333 4.99999 10.8333Z" stroke="#5D6778" stroke-width="1.75" stroke-linecap="round" stroke-linejoin="round"/>
</svg>
