<svg width="20" height="20" viewBox="0 0 20 20" fill="none" xmlns="http://www.w3.org/2000/svg">
<path d="M11.6667 1.66666H4.99999C4.55797 1.66666 4.13404 1.84226 3.82148 2.15482C3.50892 2.46738 3.33333 2.8913 3.33333 3.33333V16.6667C3.33333 17.1087 3.50892 17.5326 3.82148 17.8452C4.13404 18.1577 4.55797 18.3333 4.99999 18.3333H15C15.442 18.3333 15.8659 18.1577 16.1785 17.8452C16.4911 17.5326 16.6667 17.1087 16.6667 16.6667V6.66666L11.6667 1.66666Z" stroke="#5D6778" stroke-width="1.75" stroke-linecap="round" stroke-linejoin="round"/>
<path d="M11.6667 1.66666V6.66666H16.6667" stroke="#5D6778" stroke-width="1.75" stroke-linecap="round" stroke-linejoin="round"/>
<path d="M13.3333 10.8333H6.66667" stroke="#5D6778" stroke-width="1.75" stroke-linecap="round" stroke-linejoin="round"/>
<path d="M13.3333 14.1667H6.66667" stroke="#5D6778" stroke-width="1.75" stroke-linecap="round" stroke-linejoin="round"/>
<path d="M8.33334 7.5H7.50001H6.66667" stroke="#5D6778" stroke-width="1.75" stroke-linecap="round" stroke-linejoin="round"/>
</svg>
